# xmcd
#
# Track frame offsets:
#	150
#	9131
#	29339
#	43561
#	64811
#	75337
#	89019
#	148314
#	157937
#	173266
#	189501
#	199014
#	208266
#	221126
#	231241
#	240322
#	247436
#	280765
#	290457
#	303853
#	314055
#	325610
#
# Disc length: 4631 seconds
#
# Revision: 0
# Processed by: cddbd v1.5.2PL0 Copyright (c) Steve Scherf et al.
# Submitted via: EZCDAudioConverter 1.3.4.1
#
DISCID=37121516
DTITLE=Ken Nordine - You're Getting Better: The Word Jazz - Disc Ii
DYEAR=2005
DGENRE=
TTITLE0=Mr. Big
TTITLE1=Smerd
TTITLE2=Bury-It-Yourself Time Capsules
TTITLE3=Faces In The Jazzamatazz
TTITLE4=Manned Satellite
TTITLE5=A Whistler
TTITLE6=7 and 1
TTITLE7=Hafta Have You
TTITLE8=The Climber
TTITLE9=There's A She And A He
TTITLE10=Reaching Into In
TTITLE11=Adult Kindergarten
TTITLE12=Spectrum
TTITLE13=Fireflies
TTITLE14=So And So
TTITLE15=Lesson Number 1
TTITLE16=Confessions Of 013-04-1920
TTITLE17=You're Getting Better
TTITLE18=Original Sin
TTITLE19=Pacing
TTITLE20=Involutional Intellection
TTITLE21=Silly Ideas I Used To Have
EXTD=
EXTT0=
EXTT1=
EXTT2=
EXTT3=
EXTT4=
EXTT5=
EXTT6=
EXTT7=
EXTT8=
EXTT9=
EXTT10=
EXTT11=
EXTT12=
EXTT13=
EXTT14=
EXTT15=
EXTT16=
EXTT17=
EXTT18=
EXTT19=
EXTT20=
EXTT21=
PLAYORDER=
